<?xml version="1.0" encoding="utf-8"?><svg xml:space="preserve" viewBox="0 0 100 100" y="0" x="0" xmlns="http://www.w3.org/2000/svg" id="圖層_1" version="1.1" width="200px" height="200px" xmlns:xlink="http://www.w3.org/1999/xlink" style="width:100%;height:100%;background-size:initial;background-repeat-y:initial;background-repeat-x:initial;background-position-y:initial;background-position-x:initial;background-origin:initial;background-color:initial;background-clip:initial;background-attachment:initial;animation-play-state:paused" ><g class="ldl-scale" style="transform-origin:50% 50%;transform:rotate(0deg) scale(0.8, 0.8);animation-play-state:paused" ><g style="animation-play-state:paused" ><path fill="#e0e0e0" d="M63.995 62.967V34.433c0-7.717-6.278-13.996-13.995-13.996s-13.995 6.278-13.995 13.996v28.535H23.817V34.433C23.817 19.996 35.563 8.25 50 8.25s26.183 11.746 26.183 26.183v28.535H63.995z" style="fill:rgb(255, 255, 255);animation-play-state:paused" ></path>
<path fill="#333" d="M50 10c13.472 0 24.432 10.96 24.432 24.432v26.785h-8.688V34.432c0-8.682-7.064-15.745-15.745-15.745s-15.745 7.064-15.745 15.745v26.785h-8.688V34.432C25.568 20.96 36.528 10 50 10m0-3.5c-15.402 0-27.932 12.53-27.932 27.932v30.285h15.688V34.432c0-6.752 5.493-12.245 12.245-12.245s12.245 5.493 12.245 12.245v30.285h15.688V34.432C77.932 19.03 65.402 6.5 50 6.5z" style="animation-play-state:paused" ></path></g>
<g opacity=".2" style="animation-play-state:paused" ><g style="animation-play-state:paused" ><path d="M45.656 18.687c-8.682 0-15.745 7.064-15.745 15.745v26.785h4.344V34.432c0-7.943 5.918-14.514 13.574-15.578a15.898 15.898 0 0 0-2.173-.167z" style="fill:rgb(255, 255, 255);animation-play-state:paused" ></path></g>
<g style="animation-play-state:paused" ><path d="M50 10c-.732 0-1.456.038-2.172.102 12.458 1.103 22.261 11.591 22.261 24.331v26.785h4.344V34.432C74.432 20.96 63.472 10 50 10z" style="fill:rgb(255, 255, 255);animation-play-state:paused" ></path></g></g>
<path stroke-miterlimit="10" stroke-width="3.5" stroke="#333" fill="#f8b26a" d="M78.595 90h-57.19a4.886 4.886 0 0 1-4.886-4.886V50.178a4.886 4.886 0 0 1 4.886-4.886h57.19a4.886 4.886 0 0 1 4.886 4.886v34.936A4.887 4.887 0 0 1 78.595 90z" style="stroke:rgb(0, 0, 0);fill:rgb(255, 255, 255);animation-play-state:paused" ></path>
<path stroke-miterlimit="10" stroke-width="3.5" stroke="#000" opacity=".2" d="M78.595 45.291H50V90h28.595a4.886 4.886 0 0 0 4.886-4.886V50.178a4.887 4.887 0 0 0-4.886-4.887z" style="stroke:rgb(255, 255, 255);fill:rgb(255, 255, 255);animation-play-state:paused" ></path>
<path fill="#333" d="M53.448 67.279a6.504 6.504 0 0 0 3.067-5.521 6.515 6.515 0 0 0-13.03 0 6.505 6.505 0 0 0 3.067 5.521l-2.498 9.646c-.251 1.5.819 2.879 2.235 2.879h7.422c1.416 0 2.486-1.379 2.235-2.879l-2.498-9.646z" style="animation-play-state:paused" ></path>
<path d="M22.853 70.267v1.9" stroke-linecap="round" stroke="#fff" fill="none" stroke-miterlimit="10" stroke-width="3.5" style="stroke:rgb(0, 0, 0);animation-play-state:paused" ></path>
<path d="M22.853 52.35v10.723" stroke-linecap="round" stroke="#fff" fill="none" stroke-miterlimit="10" stroke-width="3.5" style="stroke:rgb(0, 0, 0);animation-play-state:paused" ></path>
<metadata xmlns:d="https://loading.io/stock/" style="animation-play-state:paused" ><d:name style="animation-play-state:paused" >lock</d:name>


<d:tags style="animation-play-state:paused" >lock,security,secret,protect,guard,safe,privacy,key,door,gate</d:tags>


<d:license style="animation-play-state:paused" >by</d:license>


<d:slug style="animation-play-state:paused" >ug4cti</d:slug></metadata></g><!-- generated by https://loading.io/ --></svg>