<?xml version="1.0" encoding="utf-8"?><svg xml:space="preserve" viewBox="0 0 100 100" y="0" x="0" xmlns="http://www.w3.org/2000/svg" id="圖層_1" version="1.1" width="200px" height="200px" xmlns:xlink="http://www.w3.org/1999/xlink" style="width:100%;height:100%;background-size:initial;background-repeat-y:initial;background-repeat-x:initial;background-position-y:initial;background-position-x:initial;background-origin:initial;background-color:initial;background-clip:initial;background-attachment:initial;animation-play-state:paused" ><g class="ldl-scale" style="transform-origin:50% 50%;transform:rotate(0deg) scale(0.8, 0.8);animation-play-state:paused" ><g style="animation-play-state:paused" ><path fill="#e0e0e0" d="M62.75 60.917V34.908c0-7.012-5.514-12.911-12.291-13.15a14.163 14.163 0 0 0-.46-.008c-5.768 0-10.829 3.901-12.31 9.488-.469 1.773-2.056 3.012-3.859 3.012h-3.637c-1.209 0-2.34-.54-3.101-1.481a3.986 3.986 0 0 1-.801-3.354C28.671 18.31 38.642 10.25 50 10.25l.41.003c13.146.219 23.84 11.344 23.84 24.799v25.864h-11.5z" style="fill:rgb(255, 255, 255);animation-play-state:paused" ></path>
<path fill="#333" d="M50 12l.381.003C62.75 12.209 72.5 22.681 72.5 35.052v24.114h-8V34.908c0-7.876-6.108-14.622-13.98-14.899A15.074 15.074 0 0 0 50 20c-6.711 0-12.359 4.588-14.002 10.79-.264.997-1.136 1.71-2.168 1.71h-3.637a2.245 2.245 0 0 1-2.19-2.718C30.177 19.633 39.211 12 50 12m0-3.5c-12.178 0-22.869 8.642-25.419 20.549a5.726 5.726 0 0 0 1.151 4.821A5.716 5.716 0 0 0 30.193 36h3.637c2.596 0 4.879-1.774 5.551-4.314C40.659 26.866 45.025 23.5 50 23.5c.132 0 .264.002.397.007C56.244 23.713 61 28.828 61 34.908v27.758h15V35.052C76 20.648 64.534 8.738 50.439 8.504A21.417 21.417 0 0 0 50 8.5z" style="animation-play-state:paused" ></path></g>
<g opacity=".2" style="animation-play-state:paused" ><path d="M48 20.155A14.35 14.35 0 0 0 46 20c-7.315 0-13.366 5.45-14.345 12.5h2.175c1.032 0 1.904-.713 2.168-1.71 1.477-5.569 6.19-9.828 12.002-10.635z" style="fill:rgb(255, 255, 255);animation-play-state:paused" ></path></g>
<g opacity=".2" style="animation-play-state:paused" ><path d="M50 12c-.674 0-1.341.035-2 .094C59.473 13.11 68.5 22.768 68.5 34.5v24.667h4V34.5C72.5 22.093 62.407 12 50 12z" style="fill:rgb(255, 255, 255);animation-play-state:paused" ></path></g>
<path stroke-miterlimit="10" stroke-width="3.5" stroke="#333" fill="#f8b26a" d="M76.333 85.673H23.667a4.5 4.5 0 0 1-4.5-4.5V49a4.5 4.5 0 0 1 4.5-4.5h52.666a4.5 4.5 0 0 1 4.5 4.5v32.173a4.5 4.5 0 0 1-4.5 4.5z" style="stroke:rgb(0, 0, 0);fill:rgb(255, 255, 255);animation-play-state:paused" ></path>
<path stroke-miterlimit="10" stroke-width="3.5" stroke="#000" opacity=".2" d="M76.333 44.5H50v41.173h26.333a4.5 4.5 0 0 0 4.5-4.5V49a4.5 4.5 0 0 0-4.5-4.5z" style="stroke:rgb(255, 255, 255);fill:rgb(255, 255, 255);animation-play-state:paused" ></path>
<path fill="#333" d="M53.176 64.749A5.99 5.99 0 0 0 56 59.665a6 6 0 1 0-12 0 5.99 5.99 0 0 0 2.824 5.084l-2.3 8.883c-.231 1.381.755 2.652 2.058 2.652h6.835c1.304 0 2.29-1.27 2.058-2.652l-2.299-8.883z" style="animation-play-state:paused" ></path>
<path d="M25 67.5v1.75" stroke-linecap="round" stroke="#fff" fill="none" stroke-miterlimit="10" stroke-width="3.5" style="stroke:rgb(0, 0, 0);animation-play-state:paused" ></path>
<path d="M25 51v9.875" stroke-linecap="round" stroke="#fff" fill="none" stroke-miterlimit="10" stroke-width="3.5" style="stroke:rgb(0, 0, 0);animation-play-state:paused" ></path>
<metadata xmlns:d="https://loading.io/stock/" style="animation-play-state:paused" ><d:name style="animation-play-state:paused" >unlock</d:name>


<d:tags style="animation-play-state:paused" >unlock,public,publish,share,open,security,secret,protect,guard,privacy,key,door,gate</d:tags>


<d:license style="animation-play-state:paused" >by</d:license>


<d:slug style="animation-play-state:paused" >c95muh</d:slug></metadata></g><!-- generated by https://loading.io/ --></svg>