<?xml version="1.0" standalone="no"?>
<svg xmlns="http://www.w3.org/2000/svg" viewBox="0 0 100.182 115.68" width="100.182" height="115.68"><polygon fill="#8f8b98" points="100.182,28.92 100.182,86.76 50.091,115.68 0,86.76 0,28.92 50.091,0"></polygon><g fill="white" color="white" transform="translate(32.836098039215685 22.5) scale(0.7843138)"><svg width="44.0" height="51.0" x="0.0" y="0.0" viewBox="0 0 44 51"><path fill="currentColor" fill-rule="evenodd" d="M22 0L0 12.571v25.143l22 12.572 21.994-12.568.006-.01V12.571L22 0zM6.354 13.778L22 4.84l15.645 8.938-4.231 2.419L22 9.678l-11.411 6.52-4.235-2.42zm17.764 10.158v-8.21L31.3 19.83v8.208l-7.182-4.101zm-11.416-4.107l7.18-4.102v8.207l-7.18 4.103v-8.208zm11.416 19.57l11.415-6.522V19.826l4.233-2.42v17.89l-15.648 8.941v-4.838zM4.233 35.296v-17.89l4.233 2.42v13.049l11.416 6.524v4.838l-15.649-8.94zm10.583-3.63l7.182-4.104 7.183 4.104L22 35.768l-7.184-4.102z"></path></svg></g><path fill="white" fill-rule="nonzero" d="M3.16 22.68L0 22.68L0 0L5.63 0Q7.67 0 8.89 0.74Q10.11 1.48 10.67 2.88Q11.23 4.28 11.23 6.27L11.23 6.27Q11.23 8.06 10.60 9.38Q9.97 10.70 8.74 11.41Q7.50 12.12 5.66 12.12L5.66 12.12L3.16 12.12L3.16 22.68ZM3.16 2.27L3.16 9.86L4.62 9.86Q5.99 9.86 6.78 9.55Q7.56 9.24 7.90 8.47Q8.23 7.70 8.23 6.30L8.23 6.30Q8.23 4.68 7.99 3.81Q7.76 2.94 7.00 2.60Q6.24 2.27 4.65 2.27L4.65 2.27L3.16 2.27Z" transform="translate(44.478, 70.5)"></path></svg>